<?xml version="1.0" encoding="utf-8"?>
<!-- Generator: Adobe Illustrator 23.0.6, SVG Export Plug-In . SVG Version: 6.00 Build 0)  -->
<svg version="1.1" id="Laag_1" xmlns="http://www.w3.org/2000/svg" xmlns:xlink="http://www.w3.org/1999/xlink" x="0px" y="0px"
	 viewBox="0 0 196 68" style="enable-background:new 0 0 196 68;" xml:space="preserve">
<style type="text/css">
	.st0{fill:none;stroke:#000000;stroke-width:7;}
	.st1{fill:#7A2229;}
</style>
<path class="st0" d="M34,4C17.4,4.5,4.4,18.4,5,35s14.4,29.6,31,29s29.6-14.4,29-31C64.4,17.2,51.8,4.5,36,4H34z M76,4
	C59.4,4.5,46.4,18.4,47,35s14.4,29.6,31,29s29.6-14.4,29-31C106.5,17.2,93.8,4.5,78,4H76z M118,4c-16.6,0.6-29.6,14.4-29,31
	s14.4,29.6,31,29s29.6-14.4,29-31c-0.5-15.8-13.2-28.5-29-29H118z M160,4c-16.6,0.6-29.6,14.4-29,31s14.4,29.6,31,29
	s29.6-14.4,29-31c-0.5-15.8-13.2-28.5-29-29H160z"/>
<path d="M34.9,302.4c-18,0-32.9-14.3-33.5-32.4c-0.3-8.9,2.9-17.5,9-24s14.4-10.3,23.4-10.6h0.1H36c17.6,0.6,31.8,14.8,32.4,32.4
	c0.6,18.5-13.9,34-32.4,34.6C35.7,302.4,35.3,302.4,34.9,302.4z M34,242.4c-14.6,0.5-26,12.8-25.6,27.4
	c0.5,14.6,12.8,26.1,27.4,25.6s26.1-12.8,25.6-27.4c-0.5-13.9-11.7-25.1-25.6-25.6H34z"/>
<path d="M77,302.4c-18,0-32.9-14.3-33.5-32.4c-0.6-18.5,13.9-34,32.4-34.6H76h2.1c17.6,0.6,31.8,14.8,32.4,32.4
	c0.6,18.5-13.9,34-32.4,34.6C77.7,302.4,77.3,302.4,77,302.4z M76,242.4c-14.6,0.5-26,12.8-25.6,27.4c0.2,7.1,3.2,13.6,8.4,18.5
	c5.2,4.8,11.9,7.4,19,7.1c14.6-0.5,26.1-12.8,25.6-27.4c-0.5-13.9-11.7-25.1-25.6-25.6H76z"/>
<path d="M119,302.4c-18,0-32.9-14.3-33.5-32.4c-0.3-8.9,2.9-17.5,9-24s14.4-10.3,23.4-10.6h0.1h2.1c17.6,0.6,31.8,14.8,32.4,32.4
	c0.6,18.5-13.9,34-32.4,34.6C119.8,302.4,119.4,302.4,119,302.4z M118.1,242.4c-14.6,0.5-26,12.8-25.6,27.4
	c0.5,14.6,12.8,26.1,27.4,25.6s26.1-12.8,25.6-27.4c-0.5-13.9-11.7-25.1-25.6-25.6H118.1z"/>
<path d="M161,302.4c-18,0-32.9-14.3-33.5-32.4c-0.3-8.9,2.9-17.5,9-24s14.4-10.3,23.4-10.6h0.1h2.1c17.6,0.6,31.8,14.8,32.4,32.4
	c0.6,18.5-13.9,34-32.4,34.6C161.8,302.4,161.4,302.4,161,302.4z M160.1,242.4c-14.6,0.5-26.1,12.8-25.6,27.4
	c0.5,14.6,12.8,26.1,27.4,25.6c7.1-0.2,13.6-3.2,18.5-8.4s7.4-11.9,7.1-19c-0.5-13.9-11.7-25.1-25.6-25.6H160.1z"/>
<path d="M-201.8,167c-16.9,0-30.9-13.5-31.5-30.5c-0.6-17.4,13.1-32,30.5-32.6l0,0h2c16.6,0.6,29.9,13.9,30.5,30.5
	c0.6,17.4-13.1,32-30.5,32.6C-201.1,167-201.4,167-201.8,167z M-202.7,107c-15.7,0.5-28.1,13.7-27.5,29.5
	c0.5,15.7,13.7,28.1,29.5,27.6c7.6-0.3,14.7-3.5,19.9-9c5.2-5.6,7.9-12.8,7.7-20.4c-0.5-15-12.6-27.1-27.6-27.6L-202.7,107z"/>
<path d="M-159.8,167c-16.9,0-30.9-13.5-31.5-30.5c-0.3-8.4,2.7-16.4,8.5-22.6c5.8-6.1,13.6-9.7,22-10l0,0h2
	c16.6,0.6,29.9,13.9,30.5,30.5c0.3,8.4-2.7,16.4-8.5,22.6c-5.8,6.1-13.6,9.7-22,10C-159.1,167-159.4,167-159.8,167z M-160.7,107
	c-7.6,0.3-14.7,3.5-19.9,9c-5.2,5.6-7.9,12.8-7.7,20.4c0.5,15.7,13.7,28.1,29.5,27.6c7.6-0.3,14.7-3.5,19.9-9
	c5.2-5.6,7.9-12.8,7.7-20.4c-0.5-15-12.6-27.1-27.6-27.6L-160.7,107z"/>
<path d="M-117.7,167c-16.9,0-30.9-13.5-31.5-30.5c-0.6-17.4,13.1-32,30.5-32.6l0,0h2c16.6,0.6,29.9,13.9,30.5,30.5
	c0.6,17.4-13.1,32-30.5,32.6C-117,167-117.4,167-117.7,167z M-118.7,107c-15.7,0.5-28.1,13.7-27.5,29.5
	c0.5,15.7,13.7,28.1,29.5,27.6c7.6-0.3,14.7-3.5,19.9-9c5.2-5.6,7.9-12.8,7.7-20.4c-0.5-15-12.6-27.1-27.6-27.6L-118.7,107z"/>
<path d="M-75.7,167c-16.9,0-30.9-13.5-31.5-30.5c-0.3-8.4,2.7-16.4,8.5-22.6c5.8-6.1,13.6-9.7,22-10l0,0h2
	c16.6,0.6,29.9,13.9,30.5,30.5c0.6,17.4-13.1,32-30.5,32.6C-75,167-75.4,167-75.7,167z M-76.7,107c-7.6,0.3-14.7,3.5-19.9,9
	c-5.2,5.6-7.9,12.8-7.7,20.4c0.5,15.7,13.7,28.1,29.5,27.6c7.6-0.3,14.7-3.5,19.9-9c5.2-5.6,7.9-12.8,7.7-20.4
	c-0.5-15-12.6-27.1-27.6-27.6L-76.7,107z"/>
<g>
	<path class="st1" d="M35,108.8c-18.5,0-33.5,15-33.5,33.5s15,33.5,33.5,33.5s33.5-15,33.5-33.5S53.5,108.8,35,108.8z M34.9,168.7
		c-14.6,0-26.5-11.9-26.5-26.5c0-14.6,11.9-26.5,26.5-26.5c14.6,0,26.5,11.9,26.5,26.5C61.4,156.9,49.5,168.7,34.9,168.7z"/>
</g>
<g>
	<path class="st1" d="M76.9,108.7c-18.5,0-33.5,15-33.5,33.5s15,33.5,33.5,33.5s33.5-15,33.5-33.5S95.5,108.7,76.9,108.7z
		 M76.9,168.6c-14.6,0-26.5-11.9-26.5-26.5c0-14.6,11.9-26.5,26.5-26.5c14.6,0,26.5,11.9,26.5,26.5
		C103.4,156.8,91.5,168.6,76.9,168.6z"/>
</g>
<g>
	<path class="st1" d="M118.9,108.8c-18.5,0-33.5,15-33.5,33.5s15,33.5,33.5,33.5s33.5-15,33.5-33.5S137.5,108.8,118.9,108.8z
		 M118.9,168.7c-14.6,0-26.5-11.9-26.5-26.5c0-14.6,11.9-26.5,26.5-26.5c14.6,0,26.5,11.9,26.5,26.5
		C145.4,156.9,133.5,168.7,118.9,168.7z"/>
</g>
<g>
	<path class="st1" d="M161,108.7c-18.5,0-33.5,15-33.5,33.5s15,33.5,33.5,33.5s33.5-15,33.5-33.5S179.5,108.7,161,108.7z
		 M160.9,168.6c-14.6,0-26.5-11.9-26.5-26.5c0-14.6,11.9-26.5,26.5-26.5c14.6,0,26.5,11.9,26.5,26.5
		C187.4,156.8,175.6,168.6,160.9,168.6z"/>
</g>
</svg>
