<?xml version="1.0" encoding="utf-8"?>
<!-- Generator: Adobe Illustrator 23.0.6, SVG Export Plug-In . SVG Version: 6.00 Build 0)  -->
<svg version="1.1" id="Laag_1" xmlns="http://www.w3.org/2000/svg" xmlns:xlink="http://www.w3.org/1999/xlink" x="0px" y="0px"
	 viewBox="0 0 2880 1800" style="enable-background:new 0 0 2880 1800;" xml:space="preserve">
<style type="text/css">
	.st0{fill:#7A2229;}
</style>
<g>
	<path class="st0" d="M1295.4,823.2c-42.5,0-76.9,34.4-76.9,76.9s34.4,76.9,76.9,76.9s76.9-34.4,76.9-76.9
		C1372.3,857.6,1337.8,823.2,1295.4,823.2z M1295.1,960.7c-33.6,0-60.9-27.2-60.9-60.9c0-33.6,27.2,29.2,60.9,29.2
		c33.6,0,60.9-62.9,60.9-29.2S1328.8,960.7,1295.1,960.7z"/>
</g>
<g>
	<path class="st0" d="M1391.7,823c-42.5,0-76.9,34.4-76.9,76.9s34.4,76.9,76.9,76.9s76.9-34.4,76.9-76.9S1434.2,823,1391.7,823z
		 M1391.5,960.5c-33.6,0-60.9-27.2-60.9-60.9c0-33.6,27.2-60.9,60.9-60.9c33.6,0,60.9,27.2,60.9,60.9
		C1452.3,933.3,1425.1,960.5,1391.5,960.5z"/>
</g>
<g>
	<path class="st0" d="M1488.1,823.2c-42.5,0-76.9,34.4-76.9,76.9s34.4,76.9,76.9,76.9s76.9-34.4,76.9-76.9
		C1565,857.6,1530.6,823.2,1488.1,823.2z M1487.9,960.7c-33.6,0-60.9-27.2-60.9-60.9c0-33.6,27.2-60.9,60.9-60.9
		c33.6,0,60.9,27.2,60.9,60.9C1548.7,933.5,1521.5,960.7,1487.9,960.7z"/>
</g>
<g>
	<path class="st0" d="M1584.6,823c-42.5,0-76.9,34.4-76.9,76.9s34.4,76.9,76.9,76.9s76.9-34.4,76.9-76.9
		C1661.6,857.4,1627.1,823,1584.6,823z M1584.4,960.5c-33.6,0-60.9-27.2-60.9-60.9c0-33.6,27.2-60.9,60.9-60.9
		c33.6,0,60.9,27.2,60.9,60.9S1618,960.5,1584.4,960.5z"/>
</g>
</svg>
