<?xml version="1.0" encoding="utf-8"?>
<!-- Generator: Adobe Illustrator 23.0.6, SVG Export Plug-In . SVG Version: 6.00 Build 0)  -->
<svg version="1.1" id="Laag_1" xmlns="http://www.w3.org/2000/svg" xmlns:xlink="http://www.w3.org/1999/xlink" x="0px" y="0px"
	 viewBox="0 0 1366 768" style="enable-background:new 0 0 1366 768;" xml:space="preserve">
<style type="text/css">
	.st0{fill:#EB2328;}
</style>
<path class="st0" d="M810.7,384.5l14.4,0.1c76.4,0,80.9,108.4,0,108.4h-50.3l-19.5-29.3h69.8c39.5,0,35.9-48.5,4.2-48.5h-18.6
	c-72.5,0-70.1-108.4,4.8-108.4h122.3L958,190.5L650.7,306.8h34.2c57.3,0,101.2,73.1,28.1,119.8l61.2,107.7l116.6,43.2l41.8-240.7
	H811.3C782,336.7,780.2,384.6,810.7,384.5z"/>
<path class="st0" d="M692.2,399c38.2,0.6,37.1-62.3-7.3-62.3H571.5L408,398.5l318.4,118L658.6,399H692.2z"/>
</svg>
